<mxfile host="app.diagrams.net" modified="2020-11-22T17:08:01.611Z" agent="5.0 (Windows NT 10.0; Win64; x64) AppleWebKit/537.36 (KHTML, like Gecko) Chrome/87.0.4280.66 Safari/537.36" etag="JYSz-QK9B2wod-GonzOl" version="13.10.1" type="github">
  <diagram id="1hSp8dS0c_I434N2QUBJ" name="Page-1">
    <mxGraphModel dx="1182" dy="732" grid="1" gridSize="10" guides="1" tooltips="1" connect="1" arrows="1" fold="1" page="1" pageScale="1" pageWidth="850" pageHeight="1100" math="0" shadow="0">
      <root>
        <mxCell id="0" />
        <mxCell id="1" parent="0" />
        <mxCell id="dd6WXP01Wndp3Brn4Ooe-1" value="&lt;font style=&quot;font-size: 19px&quot;&gt;Entry&lt;/font&gt;" style="rounded=0;whiteSpace=wrap;html=1;" vertex="1" parent="1">
          <mxGeometry x="377" y="30" width="97" height="40" as="geometry" />
        </mxCell>
      </root>
    </mxGraphModel>
  </diagram>
</mxfile>
